HIERARCHY
ROOT Hips
{
    OFFSET 0.000000 0.000000 0.000000
    CHANNELS 6 Xposition Yposition Zposition Zrotation Yrotation Xrotation
    JOINT LeftUpLeg
    {
        OFFSET 8.968670 -10.366788 4.050026
        CHANNELS 3 Zrotation Yrotation Xrotation
        JOINT LeftLeg
        {
            OFFSET 14.140802 -38.851593 0.000000
            CHANNELS 3 Zrotation Yrotation Xrotation
            JOINT LeftFoot
            {
                OFFSET 14.858545 -40.823521 0.000000
                CHANNELS 3 Zrotation Yrotation Xrotation
                JOINT LeftToeBase
                {
                    OFFSET 1.337215 -3.673940 9.750701
                    CHANNELS 3 Zrotation Yrotation Xrotation
                    End Site
                    {
                        OFFSET 0.000000 0.000000 0.000000
                    }
                }
            }
        }
    }
    JOINT RightUpLeg
    {
        OFFSET -8.547598 -10.366788 4.050026
        CHANNELS 3 Zrotation Yrotation Xrotation
        JOINT RightLeg
        {
            OFFSET -14.367877 -39.475525 0.000000
            CHANNELS 3 Zrotation Yrotation Xrotation
            JOINT RightFoot
            {
                OFFSET -15.015628 -41.255089 0.000000
                CHANNELS 3 Zrotation Yrotation Xrotation
                JOINT RightToeBase
                {
                    OFFSET -1.297140 -3.563761 11.512261
                    CHANNELS 3 Zrotation Yrotation Xrotation
                    End Site
                    {
                        OFFSET 0.000000 0.000000 0.000000
                    }
                }
            }
        }
    }
    JOINT Spine
    {
        OFFSET -0.149633 10.514107 -0.629463
        CHANNELS 3 Zrotation Yrotation Xrotation
        JOINT Spine1
        {
            OFFSET 0.057516 10.511228 0.230687
            CHANNELS 3 Zrotation Yrotation Xrotation
            JOINT Neck1
            {
                OFFSET -0.108711 10.188820 0.500489
                CHANNELS 3 Zrotation Yrotation Xrotation
                JOINT Head
                {
                    OFFSET 0.311345 9.959600 -2.171683
                    CHANNELS 3 Zrotation Yrotation Xrotation
                    End Site
                    {
                        OFFSET 0.000000 0.000000 0.000000
                    }
                }
            }
            JOINT LeftShoulder
            {
                OFFSET 0.000000 0.000000 0.000000
                CHANNELS 3 Zrotation Yrotation Xrotation
                JOINT LeftArm
                {
                    OFFSET 19.592615 8.544267 0.817930
                    CHANNELS 3 Zrotation Yrotation Xrotation
                    JOINT LeftForeArm
                    {
                        OFFSET 26.985596 -0.000000 0.000000
                        CHANNELS 3 Zrotation Yrotation Xrotation
                        JOINT LeftHand
                        {
                            OFFSET 20.241665 -0.000000 -0.000000
                            CHANNELS 3 Zrotation Yrotation Xrotation
                            End Site
                            {
                                OFFSET 0.000000 0.000000 0.000000
                            }
                        }
                    }
                }
            }
            JOINT RightShoulder
            {
                OFFSET 0.000000 0.000000 0.000000
                CHANNELS 3 Zrotation Yrotation Xrotation
                JOINT RightArm
                {
                    OFFSET -18.723886 9.099676 1.984345
                    CHANNELS 3 Zrotation Yrotation Xrotation
                    JOINT RightForeArm
                    {
                        OFFSET -25.338446 -0.000000 0.000000
                        CHANNELS 3 Zrotation Yrotation Xrotation
                        JOINT RightHand
                        {
                            OFFSET -20.913067 -0.000000 0.000000
                            CHANNELS 3 Zrotation Yrotation Xrotation
                            End Site
                            {
                                OFFSET 0.000000 0.000000 0.000000
                            }
                        }
                    }
                }
            }
        }
    }
}
MOTION
Frames: 16
Frame Time: 0.016667
-4.066790 101.568726 28.107985 0.537900 0.474401 15.176800 -11.334609 -11.891607 -18.699413 1.032200 6.462200 18.131500 0.553100 7.280504 -18.557608 8.199700 -16.264200 -53.278996 12.269708 4.038903 -10.218502 0.000000 0.000000 0.000000 -0.332099 -8.665004 -17.295713 -0.003100 -0.356800 0.980300 2.769202 -1.388425 30.802952 2.228903 0.086600 -13.242504 -1.321353 -3.899225 -13.769798 0.927001 -1.137200 8.407006 0.000000 0.000000 0.000000 44.591824 -66.730034 -73.104012 15.050701 -24.216715 -3.246702 0.000000 0.000000 50.485519 0.000000 0.000000 0.000000 -38.303635 59.884026 -50.397934 -20.276808 30.974300 -5.673105 0.000000 0.000000 42.457603 
-4.113074 101.585655 28.352386 0.366900 0.396000 15.348910 -11.091503 -12.150904 -18.589300 1.028701 6.451602 18.100508 0.569900 7.525600 -18.948400 8.169102 -16.242300 -53.169704 12.462100 4.159101 -10.231401 0.000000 0.000000 0.000000 -0.332800 -8.607500 -17.244400 -0.001500 -0.250000 0.686900 2.731102 -1.585271 29.953743 2.786402 0.107500 -14.071404 -1.888674 -3.737438 -11.829425 1.134700 -1.090700 7.877500 0.000000 0.000000 0.000000 35.248055 -64.466843 -62.616272 15.318600 -24.588108 -3.357400 0.000000 0.000000 49.167595 0.000000 0.000000 0.000000 -34.461723 57.818924 -44.736324 -20.380104 31.097513 -5.726406 0.000000 0.000000 42.064499 
-4.147505 101.585655 28.598482 0.375900 0.312200 15.440414 -11.063102 -12.450305 -18.345901 1.021601 6.430103 18.037603 0.590700 7.741003 -19.353508 8.113302 -16.202005 -52.969799 12.456608 4.215300 -10.177299 0.000000 0.000000 0.000000 -0.346100 -8.542404 -17.341101 -0.001000 -0.202600 0.556600 2.744124 -1.412482 29.581482 2.502601 0.111200 -13.746602 -1.577780 -3.852196 -12.466475 1.060701 -1.127301 8.126905 0.000000 0.000000 0.000000 31.949999 -61.953102 -59.264595 15.208410 -24.435617 -3.311702 0.000000 0.000000 49.673100 0.000000 0.000000 0.000000 -32.006115 54.907215 -42.680206 -20.140804 30.811499 -5.603300 0.000000 0.000000 42.099400 
-4.193225 101.576622 28.822565 0.395000 0.206700 15.446592 -11.130502 -12.202506 -18.244198 1.016001 6.412705 17.986813 0.594500 7.659904 -19.323910 8.131802 -16.215302 -53.035923 12.444404 4.276002 -10.047599 0.000000 0.000000 0.000000 -0.354300 -8.438199 -17.335609 -0.002200 -0.299800 0.823700 2.743897 -1.184043 29.288500 2.320199 0.144100 -13.446897 -1.429225 -4.063160 -12.830138 0.972899 -1.186200 8.319095 0.000000 0.000000 0.000000 28.908226 -59.651630 -57.146931 14.984498 -24.124500 -3.219602 0.000000 0.000000 50.714100 0.000000 0.000000 0.000000 -29.458914 51.857300 -40.388824 -20.018208 30.664192 -5.540599 0.000000 0.000000 42.394402 
-4.212416 101.576057 29.054550 0.358500 0.198000 15.372606 -11.119001 -12.211498 -17.991600 1.015401 6.411102 17.981913 0.610400 7.629099 -19.464001 8.116000 -16.203899 -52.979599 12.527407 4.235402 -9.830204 0.000000 0.000000 0.000000 -0.359100 -8.410900 -17.366600 0.000000 -0.001800 0.004900 2.793420 -1.192608 28.963524 2.146400 0.122100 -13.435200 -1.399169 -4.033820 -12.422508 0.905101 -1.175601 8.363610 0.000000 0.000000 0.000000 24.799498 -57.061001 -52.975201 14.988811 -24.130501 -3.221402 0.000000 0.000000 51.148701 0.000000 0.000000 0.000000 -26.700615 48.848907 -37.007420 -19.965210 30.600416 -5.513605 0.000000 0.000000 42.094906 
-4.235558 101.564774 29.317577 0.433400 0.058900 15.312607 -11.258607 -12.260711 -17.663315 1.012700 6.402802 17.957615 0.629200 7.774104 -19.781307 8.115203 -16.203306 -52.976391 12.464206 4.284302 -9.588904 0.000000 0.000000 0.000000 -0.364200 -8.366104 -17.383614 -0.001300 0.233600 -0.641900 2.727993 -1.002987 28.491220 1.987201 0.147400 -13.416302 -1.478753 -4.056523 -11.721803 0.798500 -1.173700 8.271400 0.000000 0.000000 0.000000 20.927700 -54.520393 -49.024311 14.852897 -23.940901 -3.165999 0.000000 0.000000 51.100704 0.000000 0.000000 0.000000 -23.753613 45.988216 -34.010429 -19.913803 30.538418 -5.487504 0.000000 0.000000 42.392101 
-4.245153 101.555176 29.577221 0.385300 -0.072800 15.308993 -11.273697 -12.099506 -17.529203 1.014100 6.407102 17.970304 0.638099 7.774402 -19.871706 8.117206 -16.204807 -52.983810 12.521504 4.381401 -9.425006 0.000000 0.000000 0.000000 -0.364000 -8.391301 -17.405609 -0.003300 0.370700 -1.018400 2.737731 -0.954307 27.955585 1.951701 0.150000 -13.220104 -1.551311 -3.931089 -11.202884 0.722100 -1.131400 8.132600 0.000000 0.000000 0.000000 17.785910 -51.697701 -45.615398 14.691694 -23.714899 -3.100899 0.000000 0.000000 51.816605 0.000000 0.000000 0.000000 -21.465899 43.096493 -31.198187 -19.825903 30.432014 -5.442904 0.000000 0.000000 43.024506 
-4.271118 101.560249 29.834604 0.376100 -0.149100 15.215504 -11.317100 -12.020300 -17.273397 1.019301 6.422802 18.016314 0.651400 7.780103 -20.011600 8.103799 -16.195095 -52.935680 12.561102 4.389202 -9.167807 0.000000 0.000000 0.000000 -0.377600 -8.326596 -17.505301 -0.006200 0.508700 -1.397900 2.763894 -0.826229 27.652739 1.866800 0.175200 -13.217798 -1.700914 -3.686328 -10.661272 0.678500 -1.055100 7.896399 0.000000 0.000000 0.000000 15.333307 -49.498940 -43.629120 14.349000 -23.231394 -2.964401 0.000000 0.000000 53.311001 0.000000 0.000000 0.000000 -19.267210 39.586224 -27.357323 -19.828604 30.435299 -5.444302 0.000000 0.000000 41.534107 
-4.280713 101.568726 30.095377 0.380100 -0.248600 15.252107 -11.355902 -12.051698 -17.085604 1.017600 6.417702 18.001400 0.668900 7.859900 -20.253901 8.141500 -16.222300 -53.070602 12.564803 4.446702 -9.046504 0.000000 0.000000 0.000000 -0.381800 -8.327102 -17.556705 -0.013000 0.736800 -2.024899 2.723723 -0.735659 27.194023 1.868499 0.193000 -13.125299 -1.747837 -3.542755 -10.267455 0.657800 -1.012799 7.848997 0.000000 0.000000 0.000000 12.810398 -46.610699 -40.314999 14.342002 -23.221500 -2.961599 0.000000 0.000000 53.284813 0.000000 0.000000 0.000000 -17.096802 36.104824 -23.954103 -20.173803 30.851192 -5.620203 0.000000 0.000000 41.004601 
-4.268295 101.577759 30.387194 0.462000 -0.304400 15.376197 -11.487007 -12.093806 -17.001600 1.018601 6.420802 18.010410 0.685400 7.905803 -20.456507 8.187396 -16.255400 -53.234898 12.450302 4.446399 -9.013605 0.000000 0.000000 0.000000 -0.392400 -8.259407 -17.616613 -0.010700 0.669200 -1.839101 2.609110 -0.690292 26.600151 1.845099 0.187700 -12.904996 -1.707119 -3.663443 -10.010349 0.604000 -1.045300 7.763900 0.000000 0.000000 0.000000 10.568097 -43.111904 -35.862598 14.553709 -23.520712 -3.045603 0.000000 0.000000 52.700104 0.000000 0.000000 0.000000 -15.398701 32.104286 -19.935802 -20.633200 31.397701 -5.857702 0.000000 0.000000 40.504295 
-4.260958 101.574364 30.633287 0.394400 -0.388600 15.445807 -11.447801 -12.102401 -16.908503 1.021100 6.428402 18.032602 0.702401 8.016908 -20.715111 8.212199 -16.273104 -53.323494 12.503400 4.519600 -8.949000 0.000000 0.000000 0.000000 -0.407101 -8.170500 -17.704205 -0.007600 0.562500 -1.545700 2.633538 -0.630279 26.242249 1.811701 0.199400 -12.889810 -1.683974 -3.593592 -9.672828 0.564100 -1.024001 7.622004 0.000000 0.000000 0.000000 8.617601 -39.441525 -31.490816 14.696710 -23.721918 -3.102903 0.000000 0.000000 51.948898 0.000000 0.000000 0.000000 -13.891400 28.488001 -16.575600 -20.475105 31.210512 -5.775501 0.000000 0.000000 40.150501 
-4.245718 101.568153 30.835922 0.415900 -0.397000 15.562797 -11.478104 -12.123205 -16.925493 1.021600 6.429902 18.037001 0.720500 7.918004 -20.809315 8.197000 -16.262300 -53.269199 12.467899 4.509600 -8.965800 0.000000 0.000000 0.000000 -0.399700 -8.176404 -17.622997 -0.011500 0.692100 -1.901901 2.645548 -0.626683 25.946205 1.735800 0.191300 -12.931096 -1.698032 -3.696883 -9.431331 0.527100 -1.051500 7.600606 0.000000 0.000000 0.000000 6.831801 -35.781796 -27.290104 14.832803 -23.912710 -3.157901 0.000000 0.000000 50.854900 0.000000 0.000000 0.000000 -12.472707 24.599413 -13.203010 -20.648100 31.415302 -5.865499 0.000000 0.000000 39.132000 
-4.207336 101.554611 31.080326 0.363600 -0.448100 15.570108 -11.487604 -12.160502 -16.706301 1.015600 6.411503 17.983307 0.730900 8.027304 -20.999905 8.242204 -16.294611 -53.430607 12.491204 4.518002 -8.822500 0.000000 0.000000 0.000000 -0.418601 -8.035700 -17.711100 -0.007000 0.542000 -1.489200 2.706819 -0.680398 25.711634 1.644901 0.169100 -12.990704 -1.719145 -3.675094 -9.045073 0.437500 -1.040000 7.448807 0.000000 0.000000 0.000000 5.247997 -32.315300 -24.444103 14.812800 -23.884699 -3.149800 0.000000 0.000000 51.089001 0.000000 0.000000 0.000000 -11.263803 21.391109 -10.831904 -20.169201 30.845697 -5.617903 0.000000 0.000000 38.709999 
-4.189838 101.534851 31.285215 0.390400 -0.645000 15.767007 -11.557900 -11.862197 -16.857704 1.011100 6.397904 17.943506 0.745201 7.804904 -20.954508 8.232002 -16.287306 -53.394222 12.400796 4.702400 -8.880001 0.000000 0.000000 0.000000 -0.425100 -7.959406 -17.715000 -0.005900 0.497000 -1.365499 2.586922 -0.599601 25.322544 1.689700 0.184600 -12.865898 -1.678375 -3.683213 -8.875488 0.453300 -1.044600 7.364203 0.000000 0.000000 0.000000 3.850102 -28.617798 -21.592800 14.987498 -24.128712 -3.220801 0.000000 0.000000 51.679001 0.000000 0.000000 0.000000 -10.078709 17.782003 -8.507604 -20.785110 31.576719 -5.937005 0.000000 0.000000 38.454304 
-4.145247 101.524689 31.495188 0.356600 -0.867400 15.876906 -11.578800 -11.843107 -16.747700 1.003700 6.375000 17.876392 0.772399 7.816699 -21.222700 8.217800 -16.277111 -53.343319 12.365200 4.906400 -8.841505 0.000000 0.000000 0.000000 -0.443000 -7.894496 -17.862993 -0.007000 0.540700 -1.485700 2.515954 -0.546654 25.066359 1.701200 0.193200 -12.791200 -1.539598 -3.752665 -8.766783 0.419200 -1.065701 7.337307 0.000000 0.000000 0.000000 2.640702 -24.810898 -18.656298 15.111506 -24.301310 -3.271703 0.000000 0.000000 50.783199 0.000000 0.000000 0.000000 -9.044806 14.431006 -6.557304 -20.831600 31.631201 -5.961400 0.000000 0.000000 37.962002 
-4.084852 101.509460 31.668470 0.407600 -0.937700 15.925300 -11.701103 -11.693603 -16.719007 1.000400 6.364800 17.846701 0.766200 7.751701 -21.111597 8.256300 -16.304602 -53.480793 12.278104 4.931301 -8.787497 0.000000 0.000000 0.000000 -0.448499 -7.872906 -17.906719 -0.007300 0.550700 -1.513201 2.531973 -0.494261 24.933172 1.648500 0.203200 -12.866912 -1.546820 -3.654898 -8.431486 0.323900 -1.032300 7.160104 0.000000 0.000000 0.000000 1.171099 -21.302900 -16.317596 15.309203 -24.575109 -3.353502 0.000000 0.000000 50.874500 0.000000 0.000000 0.000000 -8.003497 11.025202 -4.869900 -20.845503 31.647509 -5.968605 0.000000 0.000000 38.619202 
